<?xml version="1.0" standalone="no"?>
<!DOCTYPE svg PUBLIC "-//W3C//DTD SVG 20010904//EN"
 "http://www.w3.org/TR/2001/REC-SVG-20010904/DTD/svg10.dtd">
<svg version="1.0" xmlns="http://www.w3.org/2000/svg"
 width="500.000000pt" height="500.000000pt" viewBox="0 0 500.000000 500.000000"
 preserveAspectRatio="xMidYMid meet">
<metadata>
Created by potrace 1.11, written by Peter Selinger 2001-2013
</metadata>
<g transform="translate(0.000000,500.000000) scale(0.100000,-0.100000)"
fill="#000000" stroke="none">
<path d="M0 2500 l0 -2500 2500 0 2500 0 0 2500 0 2500 -2500 0 -2500 0 0
-2500z m204 2368 c-3 -4 0 -8 5 -8 6 0 11 6 12 13 0 9 2 9 6 -1 2 -6 9 -9 15
-6 17 11 89 6 104 -7 12 -10 13 -9 8 6 -6 15 -4 16 14 6 17 -9 22 -9 22 0 0 7
9 6 25 -5 22 -15 24 -15 18 0 -5 14 -3 15 15 5 12 -7 22 -8 22 -2 0 12 43 1
52 -13 5 -7 8 -5 8 4 0 9 9 16 19 16 11 0 17 -4 15 -8 -3 -4 0 -8 5 -8 6 0 11
6 12 13 0 8 2 8 5 1 3 -7 14 -9 26 -7 11 4 24 0 29 -8 7 -12 9 -11 9 1 0 9 9
16 19 16 11 0 17 -4 15 -8 -3 -4 0 -8 5 -8 6 0 11 6 12 13 0 9 2 9 6 -1 2 -6
9 -9 15 -6 17 11 89 6 104 -7 12 -10 13 -9 8 6 -6 15 -4 16 14 6 17 -9 22 -9
22 0 0 7 9 6 25 -5 22 -15 24 -15 18 0 -5 14 -3 15 15 5 12 -7 22 -8 22 -2 0
12 43 1 52 -13 5 -7 8 -5 8 4 0 9 9 16 19 16 11 0 17 -4 15 -8 -3 -4 0 -8 5
-8 6 0 11 6 12 13 0 8 2 8 5 1 3 -7 14 -9 26 -7 11 4 24 0 29 -8 7 -12 9 -11
9 1 0 9 9 16 19 16 11 0 17 -4 15 -8 -3 -4 0 -8 5 -8 6 0 11 6 12 13 0 9 2 9
6 -1 2 -6 9 -9 15 -6 17 11 89 6 104 -7 12 -10 13 -9 8 6 -6 15 -4 16 14 6 17
-9 22 -9 22 0 0 7 9 6 25 -5 22 -15 24 -15 18 0 -5 14 -3 15 15 5 12 -7 22 -8
22 -2 0 12 43 1 52 -13 5 -7 8 -5 8 4 0 9 9 16 19 16 11 0 17 -4 15 -8 -3 -4
0 -8 5 -8 6 0 11 6 12 13 0 8 2 8 5 1 3 -7 14 -9 26 -7 11 4 24 0 29 -8 7 -12
9 -11 9 1 0 9 9 16 19 16 11 0 17 -4 15 -8 -3 -4 0 -8 5 -8 6 0 11 6 12 13 0
9 2 9 6 -1 2 -6 9 -9 15 -6 17 11 89 6 104 -7 12 -10 13 -9 8 6 -6 15 -4 16
14 6 17 -9 22 -9 22 0 0 7 9 6 25 -5 22 -15 24 -15 18 0 -5 14 -3 15 15 5 12
-7 22 -8 22 -2 0 12 43 1 52 -13 5 -7 8 -5 8 4 0 9 9 16 19 16 11 0 17 -4 15
-8 -3 -4 0 -8 5 -8 6 0 11 6 12 13 0 8 2 8 5 1 3 -7 14 -9 26 -7 11 4 24 0 29
-8 7 -12 9 -11 9 1 0 9 9 16 19 16 11 0 17 -4 15 -8 -3 -4 0 -8 5 -8 6 0 11 6
12 13 0 9 2 9 6 -1 2 -6 9 -9 15 -6 17 11 89 6 104 -7 12 -10 13 -9 8 6 -6 15
-4 16 14 6 17 -9 22 -9 22 0 0 7 9 6 25 -5 22 -15 24 -15 18 0 -5 14 -3 15 15
5 12 -7 22 -8 22 -2 0 12 43 1 52 -13 5 -7 8 -5 8 4 0 9 9 16 19 16 11 0 17
-4 15 -8 -3 -4 0 -8 5 -8 6 0 11 6 12 13 0 8 2 8 5 1 3 -7 14 -9 26 -7 11 4
24 0 29 -8 7 -12 9 -11 9 1 0 9 9 16 19 16 11 0 17 -4 15 -8 -3 -4 0 -8 5 -8
6 0 11 6 12 13 0 9 2 9 6 -1 2 -6 9 -9 15 -6 17 11 89 6 104 -7 12 -10 13 -9
8 6 -6 15 -4 16 14 6 17 -9 22 -9 22 0 0 7 9 6 25 -5 22 -15 24 -15 18 0 -5
14 -3 15 15 5 12 -7 22 -8 22 -2 0 12 43 1 52 -13 5 -7 8 -5 8 4 0 9 9 16 19
16 11 0 17 -4 15 -8 -3 -4 0 -8 5 -8 6 0 11 6 12 13 0 8 2 8 5 1 3 -7 14 -9
26 -7 11 4 24 0 29 -8 7 -12 9 -11 9 1 0 9 9 16 19 16 11 0 17 -4 15 -8 -3 -4
0 -8 5 -8 6 0 11 6 12 13 0 9 2 9 6 -1 2 -6 9 -9 15 -6 17 11 89 6 104 -7 12
-10 13 -9 8 6 -6 15 -4 16 14 6 17 -9 22 -9 22 0 0 7 9 6 25 -5 22 -15 24 -15
18 0 -5 14 -3 15 15 5 12 -7 22 -8 22 -2 0 12 43 1 52 -13 5 -7 8 -5 8 4 0 9
9 16 19 16 11 0 17 -4 15 -8 -3 -4 0 -8 5 -8 6 0 11 6 12 13 0 8 2 8 5 1 3 -7
14 -9 26 -7 11 4 24 0 29 -8 7 -12 9 -11 9 1 0 9 9 16 19 16 11 0 17 -4 15 -8
-3 -4 0 -8 5 -8 6 0 11 6 12 13 0 9 2 9 6 -1 2 -6 9 -9 15 -6 17 11 89 6 104
-7 12 -10 13 -9 8 6 -6 15 -4 16 14 6 17 -9 22 -9 22 0 0 7 9 6 25 -5 22 -15
24 -15 18 0 -5 14 -3 15 15 5 12 -7 22 -8 22 -2 0 12 43 1 52 -13 5 -7 8 -5 8
4 0 9 9 16 19 16 11 0 17 -4 15 -8 -3 -4 0 -8 5 -8 6 0 11 6 12 13 0 8 2 8 5
1 3 -7 14 -9 26 -7 11 4 24 0 29 -8 7 -12 9 -11 9 1 0 9 9 16 19 16 11 0 17
-4 15 -8 -3 -4 0 -8 5 -8 6 0 11 6 12 13 0 9 2 9 6 -1 2 -6 9 -9 15 -6 17 11
89 6 104 -7 12 -10 13 -9 8 6 -6 15 -4 16 14 6 17 -9 22 -9 22 0 0 7 9 6 25
-5 22 -15 24 -15 18 0 -5 14 -3 15 15 5 12 -7 22 -8 22 -2 0 12 43 1 52 -13 5
-7 8 -5 8 4 0 9 9 16 19 16 11 0 17 -4 15 -8 -3 -4 0 -8 5 -8 6 0 11 6 12 13
0 8 2 8 5 1 3 -7 14 -9 26 -7 11 4 24 0 29 -8 7 -12 9 -11 9 1 0 9 9 16 19 16
11 0 17 -4 15 -8 -3 -4 0 -8 5 -8 6 0 11 6 12 13 0 9 2 9 6 -1 2 -6 9 -9 15
-6 17 11 89 6 104 -7 12 -10 13 -9 8 6 -6 15 -4 16 14 6 17 -9 22 -9 22 0 0 7
9 6 25 -5 22 -15 24 -15 18 0 -5 14 -3 15 15 5 12 -7 22 -8 22 -2 0 11 39 3
58 -12 9 -7 11 -5 6 9 -5 18 -5 18 6 1 7 -10 10 -38 8 -62 -1 -24 0 -41 5 -38
4 2 7 -1 7 -6 0 -6 -8 -11 -17 -11 -15 0 -14 -2 3 -15 14 -11 15 -14 4 -15
-13 0 -13 -1 0 -10 11 -7 11 -10 2 -10 -10 0 -10 -5 -2 -20 9 -16 8 -20 -7
-21 -16 0 -16 -1 2 -9 11 -5 14 -9 6 -9 -11 -1 -11 -4 -1 -16 7 -8 8 -15 3
-15 -5 0 -7 -21 -3 -50 5 -41 4 -50 -9 -50 -11 0 -10 -3 5 -15 14 -11 15 -14
4 -15 -13 0 -13 -1 0 -10 11 -7 11 -10 2 -10 -10 0 -10 -5 -2 -20 9 -16 8 -20
-7 -21 -16 0 -16 -1 2 -9 11 -5 14 -9 6 -9 -10 -1 -11 -4 -2 -15 9 -11 9 -15
-1 -19 -10 -4 -10 -8 2 -16 11 -8 12 -11 2 -11 -7 0 -10 -5 -7 -11 9 -14 12
-99 4 -99 -10 0 -5 -34 6 -42 6 -5 5 -8 -3 -8 -7 0 -10 -5 -7 -11 10 -15 11
-99 2 -99 -4 0 -3 -9 3 -20 9 -16 8 -20 -7 -20 -15 0 -15 -2 3 -15 14 -11 15
-14 4 -15 -13 0 -13 -1 0 -10 11 -7 11 -10 2 -10 -10 0 -10 -5 -2 -20 9 -16 8
-20 -7 -21 -16 0 -16 -1 2 -9 11 -5 14 -9 6 -9 -11 -1 -11 -4 -1 -16 7 -8 8
-15 3 -15 -5 0 -7 -21 -3 -50 5 -41 4 -50 -9 -50 -11 0 -10 -3 5 -15 14 -11
15 -14 4 -15 -13 0 -13 -1 0 -10 11 -7 11 -10 2 -10 -10 0 -10 -5 -2 -20 9
-16 8 -20 -7 -21 -16 0 -16 -1 2 -9 11 -5 14 -9 6 -9 -11 -1 -11 -4 -1 -16 7
-8 8 -15 3 -15 -5 0 -7 -21 -3 -50 5 -41 4 -50 -9 -50 -11 0 -10 -3 5 -15 14
-11 15 -14 4 -15 -13 0 -13 -1 0 -10 11 -7 11 -10 2 -10 -10 0 -10 -5 -2 -20
9 -16 8 -20 -7 -21 -16 0 -16 -1 2 -9 11 -5 14 -9 6 -9 -10 -1 -11 -4 -2 -15
9 -11 9 -15 -1 -19 -10 -4 -10 -8 2 -16 11 -8 12 -11 2 -11 -7 0 -10 -5 -7
-11 9 -14 12 -99 4 -99 -10 0 -5 -34 6 -42 6 -5 5 -8 -3 -8 -7 0 -10 -5 -7
-11 10 -15 11 -99 2 -99 -4 0 -3 -9 3 -20 9 -16 8 -20 -7 -20 -15 0 -15 -2 3
-15 14 -11 15 -14 4 -15 -13 0 -13 -1 0 -10 11 -7 11 -10 2 -10 -10 0 -10 -5
-2 -20 9 -16 8 -20 -7 -21 -16 0 -16 -1 2 -9 11 -5 14 -9 6 -9 -11 -1 -11 -4
-1 -16 7 -8 8 -15 3 -15 -5 0 -7 -21 -3 -50 5 -41 4 -50 -9 -50 -11 0 -10 -3
5 -15 14 -11 15 -14 4 -15 -13 0 -13 -1 0 -10 11 -7 11 -10 2 -10 -10 0 -10
-5 -2 -20 9 -16 8 -20 -7 -21 -16 0 -16 -1 2 -9 11 -5 14 -9 6 -9 -11 -1 -11
-4 -1 -16 7 -8 8 -15 3 -15 -5 0 -7 -21 -3 -50 5 -41 4 -50 -9 -50 -11 0 -10
-3 5 -15 14 -11 15 -14 4 -15 -13 0 -13 -1 0 -10 11 -7 11 -10 2 -10 -10 0
-10 -5 -2 -20 9 -16 8 -20 -7 -21 -16 0 -16 -1 2 -9 11 -5 14 -9 6 -9 -10 -1
-11 -4 -2 -15 9 -11 9 -15 -1 -19 -10 -4 -10 -8 2 -16 11 -8 12 -11 2 -11 -7
0 -10 -5 -7 -11 9 -14 12 -99 4 -99 -10 0 -5 -34 6 -42 6 -5 5 -8 -3 -8 -7 0
-10 -5 -7 -11 10 -15 11 -99 2 -99 -4 0 -3 -9 3 -20 9 -16 8 -20 -7 -20 -15 0
-15 -2 3 -15 14 -11 15 -14 4 -15 -13 0 -13 -1 0 -10 11 -7 11 -10 2 -10 -10
0 -10 -5 -2 -20 9 -16 8 -20 -7 -21 -16 0 -16 -1 2 -9 11 -5 14 -9 6 -9 -11
-1 -11 -4 -1 -16 7 -8 8 -15 3 -15 -5 0 -7 -21 -3 -50 5 -41 4 -50 -9 -50 -11
0 -10 -3 5 -15 14 -11 15 -14 4 -15 -13 0 -13 -1 0 -10 11 -7 11 -10 2 -10
-10 0 -10 -5 -2 -20 9 -16 8 -20 -7 -21 -16 0 -16 -1 2 -9 11 -5 14 -9 6 -9
-11 -1 -11 -4 -1 -16 7 -8 8 -15 3 -15 -5 0 -7 -21 -3 -50 5 -41 4 -50 -9 -50
-11 0 -10 -3 5 -15 14 -11 15 -14 4 -15 -13 0 -13 -1 0 -10 11 -7 11 -10 2
-10 -10 0 -10 -5 -2 -20 9 -16 8 -20 -7 -21 -16 0 -16 -1 2 -9 11 -5 14 -9 6
-9 -10 -1 -11 -4 -2 -15 9 -11 9 -15 -1 -19 -10 -4 -10 -8 2 -16 11 -8 12 -11
2 -11 -7 0 -10 -5 -7 -11 9 -14 12 -99 4 -99 -10 0 -5 -34 6 -42 6 -5 5 -8 -3
-8 -7 0 -10 -5 -7 -11 10 -15 11 -99 2 -99 -4 0 -3 -9 3 -20 9 -16 8 -20 -7
-20 -15 0 -15 -2 3 -15 14 -11 15 -14 4 -15 -13 0 -13 -1 0 -10 11 -7 11 -10
2 -10 -10 0 -10 -5 -2 -20 9 -16 8 -20 -7 -21 -16 0 -16 -1 2 -9 11 -5 14 -9
6 -9 -11 -1 -11 -4 -1 -16 7 -8 8 -15 3 -15 -5 0 -7 -21 -3 -50 5 -41 4 -50
-9 -50 -11 0 -10 -3 5 -15 14 -11 15 -14 4 -15 -13 0 -13 -1 0 -10 11 -7 11
-10 2 -10 -10 0 -10 -5 -2 -20 9 -16 8 -20 -7 -21 -16 0 -16 -1 2 -9 11 -5 14
-9 6 -9 -11 -1 -11 -4 -1 -16 7 -8 8 -15 3 -15 -5 0 -7 -21 -3 -50 5 -41 4
-50 -9 -50 -11 0 -10 -3 5 -15 14 -11 15 -14 4 -15 -13 0 -13 -1 0 -10 11 -7
11 -10 2 -10 -10 0 -10 -5 -2 -20 9 -16 8 -20 -7 -21 -16 0 -16 -1 2 -9 11 -5
14 -9 6 -9 -10 -1 -11 -4 -2 -15 9 -11 9 -15 -1 -19 -10 -4 -10 -8 2 -16 11
-8 12 -11 2 -11 -7 0 -10 -5 -7 -11 9 -14 12 -99 4 -99 -10 0 -5 -34 6 -42 6
-5 5 -8 -3 -8 -7 0 -10 -5 -7 -11 9 -14 12 -99 4 -99 -4 0 -3 -16 1 -35 7 -29
5 -35 -9 -36 -13 0 -13 -2 2 -8 17 -6 16 -8 -7 -19 -20 -9 -26 -9 -26 1 0 8
-4 7 -10 -3 -9 -13 -10 -13 -10 0 0 13 -1 13 -10 0 -9 -13 -10 -13 -10 0 0 13
-1 13 -10 0 -5 -8 -10 -10 -10 -5 0 6 -13 10 -30 10 -16 0 -30 -4 -30 -8 0 -5
-5 -5 -12 -1 -15 10 -78 11 -78 2 0 -5 -5 -8 -11 -8 -5 0 -8 4 -5 8 6 10 -36
8 -54 -3 -8 -5 -15 -4 -17 2 -3 8 -14 8 -34 3 -20 -6 -29 -5 -29 3 0 7 -4 6
-10 -3 -5 -8 -10 -10 -10 -5 0 6 -13 10 -30 10 -16 0 -30 -4 -30 -8 0 -5 -5
-5 -12 -1 -15 9 -78 11 -78 2 0 -4 -13 -3 -30 2 -16 5 -30 6 -30 2 0 -4 -11
-7 -25 -7 -14 0 -25 5 -25 10 0 6 -5 3 -10 -5 -9 -13 -10 -13 -10 0 0 13 -1
13 -10 0 -9 -13 -10 -13 -10 0 0 13 -1 13 -10 0 -5 -8 -10 -10 -10 -5 0 6 -13
10 -30 10 -16 0 -30 -4 -30 -8 0 -5 -5 -5 -12 -1 -15 10 -78 11 -78 2 0 -5 -5
-8 -11 -8 -5 0 -8 4 -5 8 6 10 -36 8 -54 -3 -8 -5 -15 -4 -17 2 -3 8 -14 8
-34 3 -20 -6 -29 -5 -29 3 0 7 -4 6 -10 -3 -5 -8 -10 -10 -10 -5 0 6 -13 10
-30 10 -16 0 -30 -4 -30 -8 0 -5 -5 -5 -12 -1 -15 9 -78 11 -78 2 0 -4 -14 -3
-30 2 -17 5 -30 6 -30 2 0 -4 -11 -7 -25 -7 -14 0 -25 5 -25 10 0 6 -5 3 -10
-5 -9 -13 -10 -13 -10 0 0 13 -1 13 -10 0 -9 -13 -10 -13 -10 0 0 13 -1 13
-10 0 -5 -8 -10 -10 -10 -5 0 6 -13 10 -30 10 -16 0 -30 -4 -30 -8 0 -5 -5 -5
-12 -1 -15 10 -78 11 -78 2 0 -5 -5 -8 -11 -8 -5 0 -8 4 -5 8 6 10 -36 8 -54
-3 -8 -5 -15 -4 -17 2 -3 8 -14 8 -34 3 -20 -6 -29 -5 -29 3 0 7 -4 6 -10 -3
-5 -8 -10 -10 -10 -5 0 6 -13 10 -30 10 -16 0 -30 -4 -30 -8 0 -5 -5 -5 -12
-1 -15 9 -78 11 -78 2 0 -4 -13 -3 -30 2 -17 5 -30 6 -30 2 0 -4 -11 -7 -25
-7 -14 0 -25 5 -25 10 0 6 -5 3 -10 -5 -9 -13 -10 -13 -10 0 0 13 -1 13 -10 0
-9 -13 -10 -13 -10 0 0 13 -1 13 -10 0 -5 -8 -10 -10 -10 -5 0 6 -13 10 -30
10 -16 0 -30 -4 -30 -8 0 -5 -5 -5 -12 -1 -15 10 -78 11 -78 2 0 -5 -5 -8 -11
-8 -5 0 -8 4 -5 8 6 10 -36 8 -54 -3 -8 -5 -15 -4 -17 2 -3 8 -14 8 -34 3 -20
-6 -29 -5 -29 3 0 7 -4 6 -10 -3 -5 -8 -10 -10 -10 -5 0 6 -13 10 -30 10 -16
0 -30 -4 -30 -8 0 -5 -5 -5 -12 -1 -15 9 -78 11 -78 2 0 -4 -13 -3 -30 2 -16
5 -30 6 -30 2 0 -4 -11 -7 -25 -7 -14 0 -25 5 -25 10 0 6 -5 3 -10 -5 -9 -13
-10 -13 -10 0 0 13 -1 13 -10 0 -9 -13 -10 -13 -10 0 0 13 -1 13 -10 0 -5 -8
-10 -10 -10 -5 0 6 -13 10 -30 10 -16 0 -30 -4 -30 -8 0 -5 -5 -5 -12 -1 -15
10 -78 11 -78 2 0 -5 -5 -8 -11 -8 -5 0 -8 4 -5 8 6 10 -36 8 -54 -3 -8 -5
-15 -4 -17 2 -3 8 -14 8 -34 3 -20 -6 -29 -5 -29 3 0 7 -4 6 -10 -3 -5 -8 -10
-10 -10 -5 0 6 -13 10 -30 10 -16 0 -30 -4 -30 -8 0 -5 -5 -5 -12 -1 -15 9
-78 11 -78 2 0 -4 -14 -3 -30 2 -17 5 -30 6 -30 2 0 -4 -11 -7 -25 -7 -14 0
-25 5 -25 10 0 6 -5 3 -10 -5 -9 -13 -10 -13 -10 0 0 13 -1 13 -10 0 -9 -13
-10 -13 -10 0 0 13 -1 13 -10 0 -5 -8 -10 -10 -10 -5 0 6 -13 10 -30 10 -16 0
-30 -4 -30 -8 0 -5 -5 -5 -12 -1 -15 10 -78 11 -78 2 0 -5 -5 -8 -11 -8 -5 0
-8 4 -5 8 6 10 -36 8 -54 -3 -8 -5 -15 -4 -17 2 -3 8 -14 8 -34 3 -20 -6 -29
-5 -29 3 0 7 -4 6 -10 -3 -5 -8 -10 -10 -10 -5 0 6 -13 10 -30 10 -16 0 -30
-4 -30 -8 0 -5 -5 -5 -12 -1 -15 9 -78 11 -78 2 0 -4 -14 -3 -30 2 -17 5 -30
6 -30 2 0 -4 -11 -7 -25 -7 -14 0 -25 5 -25 10 0 6 -5 3 -10 -5 -9 -13 -10
-13 -10 0 0 13 -1 13 -10 0 -9 -13 -10 -13 -10 0 0 13 -1 13 -10 0 -5 -8 -10
-10 -10 -5 0 6 -13 10 -30 10 -16 0 -30 -4 -30 -8 0 -5 -5 -5 -12 -1 -15 10
-78 11 -78 2 0 -5 -5 -8 -11 -8 -5 0 -8 4 -5 8 6 10 -36 8 -54 -3 -8 -5 -15
-4 -17 2 -3 8 -14 8 -34 3 -20 -6 -29 -5 -29 3 0 7 -4 6 -10 -3 -5 -8 -10 -10
-10 -5 0 6 -13 10 -30 10 -16 0 -30 -4 -30 -9 0 -5 -6 -3 -13 3 -8 6 -16 9
-18 7 -2 -2 -24 -5 -49 -7 -34 -2 -44 1 -42 11 3 11 1 11 -13 0 -20 -16 -65
-20 -65 -5 0 5 -5 3 -10 -5 -9 -13 -10 -13 -10 0 0 13 -1 13 -10 0 -9 -13 -10
-13 -10 0 0 13 -1 13 -10 0 -5 -8 -10 -10 -10 -5 0 6 -13 10 -30 10 -16 0 -30
-4 -30 -8 0 -5 -6 -5 -12 0 -7 4 -21 6 -31 5 -10 -2 -25 2 -33 9 -12 10 -13 9
-8 -7 9 -24 0 -16 -16 15 -11 21 -10 23 5 17 15 -5 16 -4 6 8 -13 16 -18 87
-7 105 4 6 1 11 -6 12 -10 0 -10 2 -1 6 7 2 13 9 13 14 0 6 -4 8 -8 5 -4 -2
-8 4 -8 15 0 10 7 19 16 19 12 0 13 2 1 9 -8 5 -12 18 -8 30 3 12 0 21 -6 22
-8 0 -8 2 1 6 6 2 12 9 12 14 0 6 -4 8 -8 5 -4 -2 -8 4 -8 15 0 10 7 19 16 19
9 0 11 3 4 8 -14 9 -25 52 -13 52 6 0 5 10 -2 22 -10 18 -9 20 5 15 15 -6 15
-4 0 18 -11 16 -12 25 -5 25 9 0 9 5 0 22 -10 18 -9 20 6 14 15 -5 16 -4 6 8
-13 16 -18 87 -7 105 4 6 1 11 -6 12 -10 0 -10 2 -1 6 7 2 13 9 13 14 0 6 -4
8 -8 5 -4 -2 -8 4 -8 15 0 10 7 19 16 19 12 0 13 2 1 9 -8 5 -12 18 -8 30 3
12 0 21 -6 22 -8 0 -8 2 0 6 7 2 13 9 13 14 0 6 -4 8 -8 5 -4 -2 -8 4 -8 15 0
10 7 19 16 19 9 0 11 3 4 8 -14 9 -25 52 -13 52 6 0 5 10 -2 22 -10 18 -9 20
5 15 15 -6 15 -4 0 18 -11 16 -12 25 -5 25 9 0 9 5 0 22 -10 18 -9 20 6 14 15
-5 16 -4 6 8 -13 16 -18 87 -7 105 4 6 1 11 -6 12 -10 0 -10 2 -1 6 7 2 13 9
13 14 0 6 -4 8 -8 5 -4 -2 -8 4 -8 15 0 10 7 19 16 19 12 0 13 2 1 9 -8 5 -12
18 -8 30 3 12 0 21 -6 22 -8 0 -8 2 0 6 7 2 13 9 13 14 0 6 -4 8 -8 5 -4 -2
-8 4 -8 15 0 10 7 19 16 19 9 0 11 3 4 8 -14 9 -25 52 -13 52 6 0 5 10 -2 22
-10 18 -9 20 5 15 15 -6 15 -4 0 18 -11 16 -12 25 -5 25 9 0 9 5 0 22 -10 18
-9 20 6 14 15 -5 16 -4 6 8 -13 16 -18 87 -7 105 4 6 1 11 -6 12 -10 0 -10 2
-1 6 7 2 13 9 13 14 0 6 -4 8 -8 5 -4 -2 -8 4 -8 15 0 10 7 19 16 19 12 0 13
2 1 9 -8 5 -12 18 -8 30 3 12 0 21 -6 22 -8 0 -8 2 0 6 7 2 13 9 13 14 0 6 -4
8 -8 5 -4 -2 -8 4 -8 15 0 10 7 19 16 19 9 0 11 3 4 8 -14 9 -25 52 -13 52 6
0 5 10 -2 22 -10 18 -9 20 5 15 15 -6 15 -4 0 18 -11 16 -12 25 -5 25 9 0 9 5
0 22 -10 18 -9 20 6 14 15 -5 16 -4 6 8 -13 16 -18 87 -7 105 4 6 1 11 -6 12
-10 0 -10 2 -1 6 7 2 13 9 13 14 0 6 -4 8 -8 5 -4 -2 -8 4 -8 15 0 10 7 19 16
19 12 0 13 2 1 9 -8 5 -12 18 -8 30 3 12 0 21 -6 22 -8 0 -8 2 0 6 7 2 13 9
13 14 0 6 -4 8 -8 5 -4 -2 -8 4 -8 15 0 10 7 19 16 19 9 0 11 3 4 8 -14 9 -25
52 -13 52 6 0 5 10 -2 22 -10 18 -9 20 5 15 15 -6 15 -4 0 18 -11 16 -12 25
-5 25 9 0 9 5 0 22 -10 18 -9 20 6 14 15 -5 16 -4 6 8 -13 16 -18 87 -7 105 4
6 1 11 -6 12 -10 0 -10 2 0 6 6 2 12 9 12 14 0 6 -4 8 -8 5 -4 -2 -8 4 -8 15
0 10 7 19 16 19 12 0 13 2 1 9 -8 5 -12 18 -8 30 3 12 0 21 -6 22 -8 0 -8 2 0
6 7 2 13 9 13 14 0 6 -4 8 -8 5 -4 -2 -8 4 -8 15 0 10 7 19 16 19 9 0 11 3 4
8 -14 9 -25 52 -13 52 6 0 5 10 -2 22 -10 18 -9 20 5 15 15 -6 15 -4 0 18 -11
16 -12 25 -5 25 9 0 9 5 0 22 -10 18 -9 20 6 14 15 -5 16 -4 6 8 -13 16 -18
87 -7 105 4 6 1 11 -6 12 -10 0 -10 2 -1 6 7 2 13 9 13 14 0 6 -4 8 -8 5 -4
-2 -8 4 -8 15 0 10 7 19 16 19 12 0 13 2 1 9 -8 5 -12 18 -8 30 3 12 0 21 -6
22 -8 0 -8 2 0 6 7 2 13 9 13 14 0 6 -4 8 -8 5 -4 -2 -8 4 -8 15 0 10 7 19 16
19 9 0 11 3 4 8 -14 9 -25 52 -13 52 6 0 5 10 -2 22 -10 18 -9 20 5 15 15 -6
15 -4 0 18 -11 16 -12 25 -5 25 9 0 9 5 0 22 -10 18 -9 20 6 14 15 -5 16 -4 6
8 -13 16 -18 87 -7 105 4 6 1 11 -6 12 -10 0 -10 2 0 6 6 2 12 9 12 14 0 6 -4
8 -8 5 -4 -2 -8 4 -8 15 0 10 7 19 16 19 12 0 13 2 1 9 -8 5 -12 18 -8 30 3
12 0 21 -6 22 -8 0 -8 2 1 6 6 2 12 9 12 14 0 6 -4 8 -8 5 -4 -2 -8 4 -8 15 0
10 7 19 16 19 9 0 11 3 4 8 -14 9 -25 52 -13 52 6 0 5 10 -2 22 -10 18 -9 20
5 15 15 -6 15 -4 0 18 -11 16 -12 25 -5 25 9 0 9 5 0 22 -10 18 -9 20 6 14 15
-5 16 -4 6 8 -13 16 -18 87 -7 105 4 6 1 11 -6 12 -10 0 -10 2 -1 6 7 2 13 9
13 14 0 6 -4 8 -8 5 -4 -2 -8 4 -8 15 0 10 7 19 16 19 12 0 13 2 1 9 -8 5 -12
18 -8 30 3 12 0 21 -6 22 -8 0 -8 2 1 6 6 2 12 9 12 14 0 6 -4 8 -8 5 -4 -2
-8 4 -8 15 0 10 7 19 16 19 9 0 11 3 4 8 -14 9 -25 52 -13 52 6 0 5 10 -2 22
-10 18 -9 20 5 15 15 -6 15 -4 0 18 -11 16 -12 25 -5 25 9 0 9 5 0 22 -10 18
-9 20 6 14 15 -5 16 -4 6 8 -13 16 -18 87 -7 105 4 6 1 11 -6 12 -10 0 -10 2
0 6 6 2 12 9 12 14 0 6 -4 8 -8 5 -4 -2 -8 4 -8 15 0 10 7 19 16 19 12 0 13 2
1 9 -8 5 -12 18 -8 30 3 12 0 21 -6 22 -8 0 -8 2 1 6 6 2 12 9 12 14 0 6 -4 8
-8 5 -4 -2 -8 4 -8 15 0 10 7 19 16 20 10 0 11 2 3 6 -7 2 -13 14 -13 24 0 13
4 18 13 13 10 -6 10 -4 0 7 -7 7 -13 17 -13 21 0 11 23 6 32 -7 5 -6 8 -4 8 5
0 9 9 16 19 16 11 0 17 -4 15 -8z"/>
<path d="M3227 3937 c-3 -9 -11 -17 -17 -17 -6 0 -8 5 -4 11 5 8 1 8 -13 0
-11 -6 -23 -7 -27 -4 -3 3 -6 1 -6 -6 0 -8 -6 -11 -16 -7 -13 5 -14 4 -5 -7 9
-12 6 -13 -15 -9 -21 4 -25 2 -19 -8 6 -10 4 -12 -8 -7 -10 4 -17 2 -17 -4 0
-6 -7 -9 -14 -6 -10 4 -13 1 -10 -7 3 -8 0 -17 -7 -22 -8 -5 -10 -3 -5 7 5 9
3 8 -6 -2 -7 -8 -21 -18 -31 -22 -10 -4 -16 -11 -13 -16 3 -5 -2 -15 -11 -22
-12 -10 -14 -10 -9 -1 4 6 3 12 -2 12 -12 0 -24 -29 -16 -41 3 -5 0 -9 -5 -9
-6 0 -11 5 -11 12 0 6 -3 8 -7 5 -7 -8 61 -77 76 -77 5 0 13 -5 17 -12 5 -7 2
-8 -7 -3 -8 5 -10 4 -6 0 11 -12 37 -15 37 -4 0 5 7 9 15 9 9 0 12 6 9 15 -7
18 12 20 20 3 3 -7 4 -4 3 7 -1 15 4 20 20 19 14 -1 20 3 16 12 -3 9 2 14 16
14 12 0 21 5 21 11 0 6 7 9 15 6 8 -4 16 -3 19 1 4 6 31 7 82 3 8 0 12 -5 9
-11 -5 -9 16 -15 38 -11 5 1 6 -3 2 -9 -3 -6 9 -26 29 -44 22 -22 30 -37 23
-40 -9 -3 -8 -5 1 -5 15 -1 42 -25 42 -38 0 -4 9 -14 20 -21 11 -7 20 -17 20
-23 0 -15 26 -39 34 -32 3 4 6 -1 6 -10 0 -9 5 -17 10 -17 6 0 10 -10 10 -22
0 -19 2 -20 10 -8 8 13 10 12 10 -2 0 -10 5 -18 10 -18 6 0 10 -7 10 -16 0 -8
5 -12 10 -9 6 3 10 1 10 -5 0 -16 26 -40 34 -32 4 3 4 -1 0 -11 -4 -12 -1 -17
12 -17 16 0 17 -2 4 -10 -13 -8 -12 -10 3 -10 20 0 47 -23 47 -39 0 -6 5 -11
11 -11 5 0 7 6 3 13 -6 8 -3 8 9 -1 9 -8 21 -11 27 -7 6 4 9 1 8 -7 -2 -8 5
-12 20 -11 13 2 21 -1 18 -6 -3 -4 7 -6 22 -4 15 3 35 5 44 6 9 1 14 5 11 11
-3 5 6 7 21 4 22 -4 26 -2 21 10 -3 9 -3 13 1 9 4 -4 15 0 24 8 15 13 17 13
17 0 0 -8 -5 -15 -10 -15 -5 0 -7 -7 -3 -15 3 -8 1 -15 -5 -15 -6 0 -9 -7 -6
-14 4 -11 1 -13 -11 -9 -15 6 -15 4 -4 -9 11 -14 11 -18 -2 -25 -19 -11 -21
-24 -4 -34 7 -5 8 -9 2 -9 -6 0 -11 -7 -11 -15 0 -8 4 -15 9 -15 5 0 6 -5 2
-12 -4 -6 1 -17 11 -25 12 -8 14 -13 5 -13 -8 0 -5 -7 8 -19 12 -10 22 -24 22
-30 0 -7 5 -9 10 -6 6 3 10 -1 10 -10 0 -11 5 -15 14 -12 9 4 17 -2 21 -14 4
-10 11 -19 16 -19 6 0 7 -4 4 -10 -3 -6 1 -7 9 -4 11 4 16 0 16 -12 0 -9 3
-15 6 -11 9 9 44 -26 37 -37 -4 -6 2 -4 12 4 10 8 16 11 13 5 -3 -5 4 -19 15
-30 11 -11 16 -13 12 -5 -8 14 13 -3 72 -57 13 -13 26 -23 28 -23 2 0 20 -16
40 -35 19 -20 35 -33 35 -30 0 3 6 0 14 -7 8 -7 11 -17 8 -23 -3 -5 -2 -7 3
-3 12 11 35 -11 28 -28 -3 -9 0 -14 8 -12 7 2 13 -6 14 -17 0 -11 4 -25 8 -32
4 -7 0 -16 -10 -22 -10 -6 -12 -11 -5 -11 14 0 12 -21 -5 -35 -6 -5 -13 -19
-15 -30 -2 -11 -10 -19 -16 -17 -7 1 -11 -1 -11 -5 3 -20 -2 -34 -11 -28 -5 3
-10 -3 -10 -14 0 -12 -5 -21 -11 -21 -5 0 -7 6 -3 13 4 7 3 8 -2 4 -4 -4 -9
-24 -9 -42 -1 -19 1 -33 3 -30 9 9 42 -16 36 -27 -4 -7 -3 -8 4 -4 7 4 12 2
12 -4 0 -7 7 -9 16 -6 11 4 15 2 11 -7 -3 -8 1 -14 9 -14 7 0 11 4 8 9 -3 4 3
8 12 8 10 0 14 3 11 7 -10 9 14 34 26 26 5 -3 7 -2 4 4 -4 6 1 19 9 29 9 10
12 12 8 4 -4 -9 -3 -12 2 -7 5 5 10 13 10 18 1 5 2 14 3 20 0 5 5 8 9 5 4 -2
9 5 9 16 1 12 8 25 15 29 13 8 14 12 17 45 0 9 6 12 13 8 8 -5 9 -2 5 9 -3 10
-2 17 3 17 5 0 7 6 4 14 -3 8 0 17 6 21 8 5 7 11 -2 23 -8 10 -9 13 -1 9 6 -4
15 -3 18 3 4 6 3 10 -2 9 -20 -3 -24 2 -12 17 9 11 9 18 2 22 -6 4 -13 18 -14
32 -2 14 -10 31 -17 38 -7 8 -9 19 -5 25 4 6 0 8 -9 4 -10 -3 -15 0 -14 11 0
9 -5 16 -11 14 -7 -1 -13 2 -13 6 0 13 -36 52 -46 52 -5 0 -17 9 -27 20 -10
12 -22 18 -27 15 -6 -3 -10 -1 -10 5 0 6 -7 18 -15 26 -8 9 -15 13 -15 9 0 -4
-6 0 -14 7 -7 7 -23 19 -34 27 -12 8 -18 19 -15 24 3 6 1 7 -5 3 -6 -3 -13 -2
-17 4 -4 6 -12 7 -18 4 -7 -4 -9 -4 -5 1 10 10 -19 38 -32 30 -6 -4 -9 -3 -8
2 5 15 -50 64 -55 50 -3 -7 -6 -5 -6 5 -1 9 -11 20 -22 23 -17 6 -19 9 -8 16
11 7 11 9 1 9 -7 0 -10 4 -7 10 4 6 -1 7 -11 3 -11 -4 -15 -3 -10 5 3 6 1 14
-5 18 -8 4 -7 9 2 15 11 7 11 9 -3 9 -17 0 -19 15 -3 39 5 10 4 16 -3 19 -7 2
-12 9 -12 14 0 6 3 8 7 5 12 -12 31 37 20 51 -6 7 -6 12 -1 11 23 -4 36 2 30
16 -3 8 -1 15 4 15 6 0 10 7 10 15 0 8 3 14 8 12 4 -1 8 1 10 6 4 14 47 52 55
49 5 -1 5 3 1 9 -3 6 0 15 7 20 10 6 8 9 -9 9 -13 0 -20 4 -17 10 3 6 1 10 -5
10 -6 0 -16 11 -22 25 -8 19 -14 22 -20 13 -6 -10 -8 -9 -8 4 0 9 -5 20 -12
24 -7 4 -8 3 -4 -4 5 -8 0 -12 -13 -12 -12 0 -21 -7 -21 -16 0 -8 -4 -12 -10
-9 -5 3 -10 2 -10 -4 0 -5 -19 -24 -42 -42 -24 -19 -38 -27 -33 -18 6 8 3 7
-6 -3 -9 -9 -19 -14 -23 -11 -3 4 -6 1 -6 -6 0 -7 -4 -9 -10 -6 -5 3 -10 1
-10 -5 0 -6 -4 -8 -10 -5 -5 3 -16 3 -22 -2 -17 -10 -30 -11 -50 -1 -10 5 -18
3 -21 -5 -3 -7 -6 -5 -6 5 -1 12 -8 16 -22 13 -12 -3 -19 -2 -16 2 7 7 -31 43
-45 43 -5 0 -6 5 -3 10 3 6 -4 14 -17 19 -13 6 -17 10 -10 10 7 1 1 13 -15 29
-15 15 -31 26 -35 25 -4 -2 -5 4 -2 12 4 10 0 15 -11 15 -9 0 -13 5 -10 10 3
6 -1 13 -9 16 -9 3 -13 10 -10 15 3 5 0 9 -6 9 -6 0 -8 4 -5 10 4 6 -1 7 -11
3 -12 -4 -15 -3 -10 5 4 7 -4 22 -18 36 -14 13 -26 27 -26 32 0 5 -9 16 -19
24 -11 7 -18 17 -15 22 3 4 -2 8 -10 8 -9 0 -16 7 -16 16 0 9 -5 12 -12 8 -8
-5 -9 -2 -5 9 3 9 1 19 -5 23 -7 5 -8 2 -4 -7 5 -8 -4 0 -18 18 -16 19 -33 30
-41 26 -8 -3 -15 0 -15 6 0 6 -18 14 -40 17 -22 4 -40 11 -40 17 0 5 -8 3 -17
-4 -15 -12 -16 -12 -8 1 7 13 6 13 -7 2 -13 -10 -17 -10 -20 0 -3 8 -7 6 -11
-5z"/>
<path d="M2156 3547 c3 -10 9 -15 12 -12 3 3 0 11 -7 18 -10 9 -11 8 -5 -6z"/>
<path d="M2180 3535 c-8 -10 -17 -12 -24 -6 -7 6 -18 6 -25 1 -8 -4 -20 -6
-28 -3 -7 3 -13 0 -13 -6 0 -6 -9 -11 -19 -11 -11 0 -22 -4 -26 -10 -3 -5 -13
-6 -22 -3 -10 4 -14 2 -10 -4 8 -12 -20 -26 -34 -17 -5 3 -8 0 -7 -8 2 -7 -3
-12 -9 -11 -7 2 -13 -2 -13 -8 0 -6 -7 -9 -14 -6 -10 4 -13 1 -9 -9 3 -9 -2
-14 -15 -14 -11 0 -23 -7 -26 -16 -3 -8 -11 -12 -16 -9 -6 4 -9 3 -8 -2 2 -4
-15 -26 -36 -48 -31 -31 -36 -41 -22 -43 9 -2 14 -8 10 -13 -3 -5 2 -12 10
-15 9 -3 13 -10 10 -15 -3 -5 -2 -9 3 -8 21 4 33 -2 33 -17 0 -9 5 -12 12 -8
8 5 9 2 5 -10 -4 -11 -3 -15 4 -10 6 4 15 0 20 -7 7 -11 9 -11 9 -1 0 7 5 10
10 7 6 -3 10 -1 10 4 0 6 8 11 18 11 14 0 15 2 2 10 -13 8 -12 10 3 10 10 0
20 7 23 15 4 8 10 13 14 10 4 -3 11 2 14 11 3 8 10 13 15 10 5 -3 12 1 15 10
3 9 13 14 20 11 8 -3 17 2 21 11 5 14 7 14 15 2 7 -11 10 -11 10 -2 0 8 11 11
35 9 19 -2 32 -1 30 3 -3 5 2 11 11 14 8 3 12 2 9 -4 -3 -6 3 -10 14 -10 12 0
21 -5 21 -11 0 -5 5 -7 10 -4 6 3 10 1 10 -5 0 -7 7 -9 16 -6 8 3 12 2 9 -4
-3 -6 -1 -10 5 -10 6 0 9 -4 6 -8 -3 -5 6 -16 20 -26 13 -11 24 -23 24 -28 0
-5 11 -20 25 -34 14 -14 25 -29 25 -35 0 -6 4 -8 9 -4 5 3 12 1 16 -5 3 -5 0
-10 -7 -11 -7 0 -3 -4 8 -9 12 -5 28 -22 35 -39 7 -16 16 -28 20 -26 3 3 17
-8 30 -23 20 -22 20 -24 3 -12 -11 8 -6 2 10 -14 17 -16 24 -25 16 -20 -13 7
-13 5 -1 -9 7 -9 20 -17 28 -17 8 0 11 -4 8 -10 -3 -5 -1 -10 4 -10 6 0 11 -7
11 -15 0 -8 9 -20 20 -27 11 -7 20 -19 20 -26 0 -7 5 -10 10 -7 6 3 10 0 10
-7 0 -8 9 -20 19 -28 11 -7 18 -17 15 -22 -3 -4 2 -5 10 -2 11 4 16 0 16 -15
0 -12 5 -22 10 -22 6 -1 15 -2 21 -3 6 0 17 -10 25 -20 8 -11 14 -16 14 -10 0
5 5 2 10 -6 9 -13 10 -13 10 0 1 12 3 12 11 -2 6 -11 16 -15 26 -11 12 5 14 3
8 -8 -7 -12 -6 -12 7 -1 11 9 18 10 23 2 4 -6 12 -7 24 0 12 6 22 5 28 -1 8
-8 13 -7 18 2 6 8 4 10 -5 4 -9 -5 -11 -4 -6 3 5 9 13 9 27 1 12 -6 23 -8 27
-5 3 3 -1 6 -8 6 -13 0 -5 15 8 15 4 0 13 4 21 9 10 7 12 5 7 -5 -4 -8 -1 -6
7 4 13 15 47 24 47 12 0 -2 -13 -27 -30 -55 -16 -27 -25 -50 -19 -50 8 0 8 -4
0 -14 -7 -8 -9 -25 -5 -40 4 -17 2 -26 -5 -26 -8 0 -9 -6 -2 -19 6 -10 7 -21
4 -25 -3 -3 -2 -6 4 -6 6 0 14 -7 17 -16 5 -12 3 -14 -7 -8 -7 5 -4 1 6 -9 11
-9 15 -17 11 -17 -5 0 -1 -5 9 -11 9 -5 17 -15 17 -20 0 -14 26 -39 40 -39 6
0 8 -4 5 -10 -3 -5 1 -10 10 -10 9 0 13 -5 10 -10 -3 -6 1 -10 9 -10 9 0 16
-4 16 -10 0 -5 7 -10 16 -10 8 0 12 -4 9 -10 -3 -5 1 -10 9 -10 9 0 16 -7 16
-15 0 -8 3 -14 8 -14 24 4 34 -2 28 -18 -4 -10 -4 -14 0 -10 10 9 64 -25 64
-41 0 -7 5 -10 10 -7 6 3 10 1 10 -4 0 -6 9 -11 20 -11 11 0 19 -5 18 -12 -2
-6 7 -17 19 -23 13 -7 20 -15 16 -18 -6 -7 13 -11 32 -7 6 1 7 -1 3 -5 -8 -9
16 -35 31 -35 6 0 11 -4 11 -10 0 -5 7 -10 15 -10 8 0 15 -5 15 -11 0 -14 26
-36 58 -49 12 -5 22 -16 22 -24 0 -7 7 -16 15 -19 8 -4 12 -15 10 -26 -2 -12
1 -18 8 -15 8 3 12 -11 13 -41 1 -25 -3 -45 -8 -45 -5 0 -6 -5 -3 -10 3 -6 -3
-24 -15 -40 -12 -16 -19 -33 -17 -37 5 -11 -30 -43 -38 -35 -3 4 -3 -2 1 -12
5 -14 4 -17 -4 -12 -11 6 -17 -5 -13 -27 0 -4 -5 -6 -11 -5 -7 2 -12 -2 -11
-9 2 -7 -3 -10 -11 -7 -10 4 -14 -2 -12 -19 0 -14 4 -23 9 -20 4 2 10 -3 13
-11 3 -9 10 -14 14 -11 5 3 11 -4 15 -15 3 -11 12 -20 18 -20 7 0 21 -12 31
-27 10 -16 15 -20 12 -9 -5 15 -4 17 8 7 11 -9 15 -8 20 4 3 9 10 13 16 10 6
-4 13 7 16 24 4 20 11 28 21 24 7 -3 13 -1 11 5 -2 6 6 18 17 27 11 9 13 14 5
10 -8 -4 -5 2 7 13 12 11 20 22 17 24 -2 3 2 11 11 18 8 7 15 18 15 26 0 7 8
18 18 23 13 8 14 11 2 11 -12 0 -12 3 2 11 11 6 15 16 11 26 -5 12 -3 14 7 8
10 -6 12 -4 7 8 -3 10 -2 17 2 17 5 0 7 13 5 30 -4 23 -1 30 11 30 15 0 15 1
1 16 -21 20 -20 28 2 20 16 -6 16 -5 0 7 -15 12 -15 14 0 23 13 9 13 12 2 19
-9 6 -11 4 -5 -5 5 -8 4 -11 -2 -7 -6 4 -9 18 -8 32 2 14 -1 25 -6 25 -4 0 -5
8 -2 17 5 12 2 15 -10 10 -11 -4 -14 -2 -11 8 7 17 -14 57 -26 50 -6 -3 -7 1
-4 9 4 11 0 16 -11 16 -9 0 -13 4 -10 10 3 6 -1 10 -9 10 -9 0 -16 9 -16 21 0
11 -4 17 -10 14 -5 -3 -26 10 -45 30 -20 19 -41 36 -48 38 -6 1 -23 14 -36 30
-14 15 -30 27 -36 27 -6 0 -17 9 -25 19 -7 11 -17 18 -22 15 -4 -3 -8 3 -8 13
0 15 -2 16 -10 3 -8 -13 -10 -12 -10 3 0 9 -4 17 -10 17 -5 0 -21 11 -35 25
-14 14 -25 22 -25 18 0 -4 -11 4 -24 20 -13 15 -31 27 -41 27 -12 0 -15 5 -11
17 4 10 4 14 0 10 -4 -4 -13 1 -21 11 -10 11 -12 12 -8 2 4 -8 -1 -6 -10 5 -9
11 -21 19 -26 18 -5 -2 -8 0 -7 5 5 17 -14 52 -25 46 -7 -4 -9 -4 -5 1 4 4 2
15 -5 23 -10 13 -9 14 3 7 12 -7 13 -6 4 6 -16 19 -25 101 -11 92 6 -4 8 0 4
10 -3 10 -2 17 4 17 6 0 7 5 4 10 -3 6 0 13 9 16 8 3 12 12 9 20 -3 8 0 14 7
14 6 0 8 5 5 10 -3 6 1 13 9 16 9 3 14 10 11 14 -3 4 2 11 11 14 8 3 13 10 10
14 -6 10 29 43 38 36 3 -2 4 -1 1 3 -8 10 16 33 29 26 6 -3 8 -2 3 2 -4 5 0
19 9 33 9 13 11 21 5 18 -6 -4 -11 0 -11 8 0 9 -7 16 -15 16 -9 0 -19 10 -24
23 -12 30 -48 60 -55 44 -2 -7 -5 -4 -5 6 -1 15 -4 16 -21 7 -11 -6 -18 -15
-15 -21 4 -5 -1 -9 -10 -9 -9 0 -14 -4 -11 -9 3 -5 -1 -12 -10 -15 -10 -4 -13
-2 -8 7 4 6 -8 -5 -27 -25 -19 -20 -40 -38 -48 -40 -8 -2 -23 -10 -33 -18 -10
-8 -24 -15 -31 -15 -7 -1 -11 -5 -10 -11 1 -5 -19 -9 -43 -9 -36 1 -44 -2 -39
-14 4 -11 -1 -9 -16 5 -14 11 -19 13 -14 4 7 -12 6 -13 -7 -3 -8 7 -18 9 -22
5 -4 -4 -14 1 -21 11 -7 10 -16 18 -19 18 -20 -3 -26 0 -21 9 3 6 -1 10 -10
10 -8 0 -20 11 -25 25 -5 14 -21 30 -35 37 -14 6 -25 20 -25 30 0 10 -7 21
-15 24 -8 4 -12 11 -8 17 3 5 1 7 -5 3 -12 -7 -44 33 -36 46 3 5 0 7 -7 6 -7
-2 -18 7 -24 19 -7 13 -14 20 -17 18 -3 -3 -13 10 -22 30 -10 21 -22 33 -28
29 -7 -4 -8 -2 -4 4 4 7 2 12 -4 12 -6 0 -8 5 -5 10 3 6 -1 10 -9 10 -8 0 -18
9 -21 20 -4 12 -25 40 -48 63 -23 23 -33 35 -21 27 11 -8 8 -3 -7 12 -15 14
-25 28 -23 31 3 2 -9 10 -26 17 -16 7 -28 16 -25 20 7 11 -24 22 -37 13 -7 -4
-8 -1 -3 7 6 10 4 12 -9 7 -10 -4 -15 -3 -11 3 3 6 3 11 -2 11 -4 1 -19 3 -33
6 -14 2 -41 4 -60 4 -25 0 -31 2 -20 9 8 5 10 10 4 10 -6 0 -17 -7 -24 -15z
m598 -540 c-3 -3 -9 2 -12 12 -6 14 -5 15 5 6 7 -7 10 -15 7 -18z"/>
<path d="M3402 3383 c-6 -2 -10 -9 -6 -14 3 -5 0 -9 -7 -9 -7 0 -5 -6 6 -13
13 -10 15 -16 6 -21 -6 -4 -9 -12 -5 -17 3 -5 10 -6 16 -3 7 5 9 1 5 -9 -3
-10 -2 -17 4 -17 6 0 7 -5 4 -10 -4 -6 1 -22 10 -36 9 -14 14 -28 11 -31 -3
-3 2 -12 12 -20 10 -9 11 -12 2 -7 -8 4 -4 -5 9 -19 25 -27 37 -35 26 -17 -3
6 -1 10 4 10 6 0 11 -4 11 -8 0 -5 7 -9 15 -9 8 0 12 4 10 8 -3 4 2 10 11 13
10 4 13 2 8 -7 -5 -8 -2 -8 9 2 9 7 14 17 11 22 -3 5 1 9 8 9 9 0 9 3 -2 10
-13 9 -13 10 0 10 13 0 13 1 0 10 -8 5 -11 12 -7 16 12 12 -24 44 -50 44 -14
0 -21 4 -18 10 3 6 1 10 -5 10 -6 0 -9 4 -6 9 3 5 -1 11 -9 15 -8 3 -15 10
-15 16 0 6 5 8 12 4 7 -4 8 -3 4 5 -6 9 -11 9 -24 -1 -12 -10 -14 -10 -8 0 4
7 4 21 1 33 -6 17 -9 18 -23 7 -12 -10 -14 -10 -8 0 7 12 0 14 -22 5z"/>
<path d="M870 3047 c0 -4 -4 -6 -9 -2 -5 3 -13 0 -17 -6 -4 -8 -9 -7 -15 2 -7
11 -9 9 -9 -6 0 -17 -2 -17 -10 -5 -7 11 -10 11 -10 2 0 -7 -4 -11 -9 -8 -13
8 -83 -29 -74 -39 4 -5 -1 -3 -11 5 -13 10 -17 10 -12 3 4 -8 1 -13 -9 -13
-10 0 -13 -5 -9 -12 4 -6 3 -8 -4 -4 -6 3 -13 2 -17 -4 -4 -6 -10 -8 -15 -5
-5 3 -11 -4 -15 -15 -3 -11 -11 -20 -16 -20 -6 0 -7 5 -3 12 4 7 3 8 -4 4 -7
-4 -12 -14 -12 -22 0 -8 -4 -13 -9 -10 -5 3 -21 -7 -37 -21 -16 -15 -32 -26
-36 -25 -5 1 -8 -5 -8 -13 0 -8 -7 -15 -16 -15 -8 0 -12 -4 -9 -10 3 -5 -1
-10 -9 -10 -9 0 -16 -6 -16 -14 0 -8 -6 -17 -12 -19 -10 -4 -10 -6 0 -6 7 -1
10 -5 7 -11 -3 -5 1 -10 10 -10 9 0 14 -4 11 -9 -3 -5 3 -11 14 -14 11 -3 24
-16 29 -30 5 -14 16 -29 23 -33 9 -5 8 -2 -2 12 -14 18 -14 18 3 5 9 -7 17
-20 17 -28 0 -10 6 -13 16 -9 8 3 12 2 9 -4 -3 -6 1 -10 9 -10 9 0 16 5 16 10
0 6 7 10 15 10 9 0 12 6 8 17 -4 11 -3 14 5 9 7 -4 15 -1 18 8 3 9 10 13 15
10 5 -3 9 0 9 5 0 6 7 11 16 11 8 0 13 4 10 9 -3 5 4 11 15 14 14 4 18 10 13
19 -6 9 -2 9 12 -2 10 -8 16 -10 12 -6 -11 13 11 36 28 29 8 -3 14 0 14 7 0 6
4 8 10 5 5 -3 20 1 32 9 17 12 25 13 37 3 12 -9 13 -9 7 1 -4 6 -2 12 3 12 6
0 11 -6 11 -12 0 -8 3 -9 8 -3 8 12 32 13 50 2 6 -5 12 -5 12 0 0 4 5 0 11 -9
5 -10 16 -18 24 -18 17 0 55 -30 55 -43 0 -5 14 -22 30 -37 17 -15 30 -33 30
-39 0 -6 5 -11 10 -11 6 0 10 -5 10 -11 0 -15 26 -39 42 -39 10 0 9 -3 -2 -10
-13 -8 -13 -10 1 -10 9 0 24 -10 35 -22 12 -15 14 -19 4 -13 -9 6 -8 3 2 -7
10 -9 18 -21 18 -28 0 -6 5 -8 12 -4 8 5 9 2 5 -10 -4 -9 -3 -15 1 -12 9 5 42
-29 42 -43 0 -5 11 -16 24 -25 14 -8 27 -25 31 -36 3 -11 13 -20 21 -20 8 0
13 -4 10 -9 -8 -12 40 -62 50 -53 5 4 2 -2 -6 -12 -8 -11 -10 -17 -5 -14 15 9
48 -19 39 -33 -4 -8 -3 -10 4 -5 11 7 17 -6 13 -27 -1 -5 3 -6 9 -2 5 3 10 1
10 -5 0 -6 5 -8 12 -4 8 5 9 2 5 -10 -4 -10 -3 -15 3 -11 6 3 10 1 10 -4 0 -6
6 -11 14 -11 8 0 17 -7 20 -16 3 -8 11 -12 16 -9 6 4 10 3 9 -2 -5 -27 1 -35
16 -23 15 12 16 11 19 -12 0 -7 7 -14 14 -14 6 -1 15 -3 20 -4 4 -1 10 -2 15
-1 4 0 7 -4 7 -10 0 -6 8 -9 19 -6 10 2 26 0 35 -5 11 -6 16 -5 16 4 0 8 3 9
8 3 9 -12 72 -14 65 -1 -3 4 4 5 16 1 13 -4 21 -2 21 5 0 6 5 8 10 5 6 -3 10
-1 10 5 0 6 5 8 10 5 6 -3 10 0 10 7 0 11 2 10 9 0 7 -11 9 -11 14 2 4 9 11
15 16 14 5 -2 17 6 26 17 9 11 14 14 10 8 -8 -16 7 -17 23 -1 9 9 12 9 12 0 0
-7 -5 -12 -11 -12 -5 0 -7 -5 -3 -12 4 -7 3 -8 -4 -4 -7 4 -12 1 -12 -9 0 -9
-4 -13 -10 -10 -6 3 -7 -1 -4 -9 4 -11 0 -16 -12 -16 -16 0 -16 -2 -4 -10 12
-8 12 -10 -3 -16 -9 -3 -17 -10 -17 -16 0 -5 6 -6 13 -2 6 4 3 -3 -8 -16 -11
-13 -14 -20 -8 -16 9 5 11 2 7 -9 -4 -9 -13 -14 -20 -11 -8 3 -11 0 -7 -9 3
-8 10 -12 17 -8 6 4 5 -1 -3 -10 -7 -9 -10 -17 -5 -17 5 0 2 -5 -6 -10 -9 -6
-10 -10 -3 -10 7 0 10 -11 9 -27 -2 -16 3 -33 13 -41 12 -10 12 -12 1 -6 -10
5 -8 -1 5 -16 11 -13 14 -20 7 -16 -11 7 -11 4 0 -13 7 -12 16 -21 21 -21 4 0
6 -4 3 -9 -3 -5 1 -12 10 -15 9 -4 14 -9 11 -12 -7 -7 29 -44 44 -44 5 0 7 -4
4 -10 -3 -5 1 -10 9 -10 9 0 16 -7 16 -16 0 -10 6 -14 14 -11 9 4 17 -2 21
-13 3 -10 13 -24 23 -32 16 -12 16 -11 3 7 -8 11 1 4 20 -15 20 -19 46 -42 59
-50 14 -8 40 -31 59 -50 19 -19 31 -28 25 -20 -5 10 -2 9 8 -2 9 -10 21 -18
28 -18 6 0 8 -4 5 -10 -3 -5 0 -10 7 -10 7 0 24 -12 37 -25 13 -14 27 -25 33
-25 5 0 7 -4 4 -8 -3 -5 11 -16 30 -25 21 -11 32 -22 28 -29 -4 -6 -3 -9 2 -6
10 5 45 -27 38 -36 -2 -4 1 -2 8 4 13 11 51 -26 42 -41 -3 -5 2 -6 10 -3 9 3
16 1 16 -6 0 -6 5 -8 10 -5 9 5 14 -7 11 -27 0 -4 9 -5 20 -3 15 3 19 0 15
-10 -3 -9 1 -15 10 -15 8 0 13 -4 9 -9 -3 -5 2 -16 10 -25 19 -18 29 -129 11
-119 -7 4 -7 2 1 -7 9 -10 8 -16 -3 -28 -9 -8 -13 -23 -11 -33 3 -10 2 -17 -2
-16 -3 1 -8 -2 -10 -8 -3 -5 -11 -16 -18 -23 -7 -8 -11 -18 -8 -23 4 -5 -2 -6
-11 -2 -12 4 -15 3 -10 -5 7 -12 -33 -59 -47 -54 -5 1 -6 -2 -2 -7 6 -11 -29
-52 -39 -45 -3 2 -4 1 -1 -3 3 -3 0 -12 -6 -20 -11 -13 -10 -14 14 -17 6 -1
11 -9 11 -18 -1 -11 5 -15 18 -13 10 2 16 0 13 -4 -3 -5 2 -12 11 -15 8 -3 13
-10 9 -15 -3 -5 4 -12 15 -16 11 -3 20 -11 20 -16 0 -6 5 -7 12 -3 8 5 9 2 5
-9 -5 -13 0 -16 22 -14 21 1 28 7 26 19 -3 12 1 15 12 11 9 -4 14 -2 10 3 -3
6 5 18 18 28 14 10 22 23 18 29 -4 7 0 8 11 4 13 -5 17 -3 13 6 -3 8 2 21 11
29 21 19 54 64 54 75 1 4 8 14 17 21 13 11 13 12 1 7 -10 -4 -9 -2 2 8 10 8
15 17 11 20 -3 4 2 9 11 13 9 3 16 10 16 16 0 5 -6 6 -12 2 -7 -4 -5 2 5 14
11 12 16 26 11 33 -4 7 -3 10 3 6 6 -4 13 0 17 8 3 8 1 15 -5 15 -6 0 -7 5 -4
10 4 6 12 7 18 3 7 -4 6 0 -2 10 -9 11 -10 17 -2 17 6 0 11 5 11 11 0 5 -6 7
-12 4 -7 -4 -4 1 6 9 15 12 16 16 5 16 -12 0 -12 2 1 10 13 9 13 10 0 10 -9 0
-11 3 -5 8 13 8 13 22 1 41 -7 11 -6 12 5 6 12 -8 12 -6 0 8 -11 14 -11 17 0
17 12 0 12 2 0 9 -7 5 -10 14 -7 20 4 6 2 11 -4 11 -6 0 -8 5 -5 10 3 6 1 10
-6 10 -7 0 -9 3 -6 7 4 3 1 13 -6 21 -10 13 -9 14 3 7 11 -6 10 -3 -3 12 -9
11 -14 23 -10 27 5 4 1 6 -7 4 -8 -1 -14 2 -15 9 0 7 -15 24 -32 39 -18 15
-33 32 -33 39 0 7 -8 19 -17 26 -17 13 -17 12 -4 -6 8 -11 -1 -4 -20 16 -19
20 -42 39 -52 43 -10 3 -16 10 -12 15 3 6 -3 8 -14 6 -12 -2 -21 3 -24 16 -3
10 -12 19 -20 19 -7 0 -19 10 -25 23 -6 12 -11 16 -11 10 -1 -17 -41 22 -41
40 0 8 -4 7 -10 -3 -7 -11 -10 -11 -10 -2 0 8 -5 10 -12 6 -9 -5 -8 -2 1 9 12
15 12 17 -3 11 -10 -4 -18 0 -22 10 -3 9 -10 13 -15 10 -5 -3 -9 2 -9 11 0 9
-4 13 -10 10 -5 -3 -10 -1 -10 5 0 6 -12 16 -27 23 -15 6 -41 27 -56 45 -16
17 -35 32 -43 32 -8 0 -14 5 -14 10 0 6 -7 10 -16 10 -11 0 -14 5 -10 16 4 12
1 14 -14 9 -11 -4 -19 -2 -18 3 2 5 -9 21 -24 35 -15 14 -24 28 -21 31 4 3 1
6 -6 6 -7 0 -9 5 -6 10 4 6 3 9 -2 8 -4 -2 -9 1 -10 5 -1 5 -10 16 -20 24 -17
14 -17 14 1 8 19 -6 19 -5 2 14 -10 11 -16 27 -13 35 3 8 1 17 -6 20 -8 3 -9
7 -2 13 6 4 10 25 10 46 -1 23 5 41 14 46 8 5 11 15 8 25 -4 10 -3 15 3 11 6
-3 10 1 10 10 0 9 4 14 9 10 6 -3 8 4 6 16 -2 12 -2 19 2 15 7 -6 48 54 45 66
-1 5 4 7 11 5 6 -1 11 3 11 8 -1 6 7 19 19 30 11 11 16 13 12 5 -5 -9 -5 -12
1 -7 5 5 10 13 10 18 1 5 2 14 3 20 0 5 5 8 10 5 5 -3 17 6 26 21 17 26 17 27
-3 44 -12 9 -18 19 -15 23 4 3 1 6 -6 6 -16 0 -42 26 -34 34 4 3 -1 6 -10 6
-10 0 -17 8 -17 17 0 9 -3 13 -6 10 -4 -4 -15 2 -25 14 -12 14 -18 16 -22 7
-4 -10 -6 -10 -6 1 -1 7 -21 -8 -46 -33 -25 -26 -49 -45 -55 -41 -6 3 -7 -1
-4 -10 4 -9 3 -15 -2 -14 -5 1 -16 1 -24 0 -13 -1 -13 -2 0 -11 13 -9 13 -10
0 -11 -8 -1 -18 -1 -22 0 -5 0 -8 -4 -8 -10 0 -6 -7 -8 -17 -5 -10 4 -14 4
-11 0 12 -11 -43 -51 -61 -44 -2 1 -7 -3 -11 -9 -3 -6 -24 -12 -46 -14 -21 -1
-45 -8 -53 -15 -11 -11 -16 -10 -31 3 -9 8 -24 13 -34 9 -9 -3 -16 -1 -16 6 0
6 -4 9 -9 6 -5 -3 -11 1 -15 9 -3 8 -11 15 -18 15 -9 0 -8 -3 2 -10 8 -5 10
-10 4 -10 -16 0 -45 35 -37 44 5 4 4 7 -2 5 -17 -4 -45 13 -45 27 0 8 -7 17
-15 20 -8 4 -12 11 -8 17 4 6 0 8 -11 4 -10 -4 -15 -3 -11 3 3 6 0 10 -7 10
-9 0 -9 3 2 10 13 8 8 14 -11 12 -4 -1 -15 9 -25 21 -19 21 -19 21 1 7 19 -14
19 -14 6 3 -7 9 -20 17 -28 17 -8 0 -12 4 -8 9 3 5 1 12 -5 16 -6 4 -8 11 -5
16 4 5 -2 6 -11 2 -13 -5 -16 -3 -11 10 4 11 1 17 -9 17 -8 0 -19 12 -24 26
-6 15 -14 22 -22 18 -7 -4 -8 -3 -4 5 8 12 -18 44 -28 34 -3 -4 -6 4 -6 16 0
12 -4 20 -9 16 -5 -3 -12 4 -16 15 -3 11 -14 20 -23 21 -10 0 -12 3 -5 5 8 4
-1 18 -23 40 -19 19 -32 39 -29 45 4 5 -1 9 -10 9 -8 0 -18 7 -22 16 -3 10
-20 30 -36 45 -17 16 -26 29 -21 29 5 0 -8 11 -29 25 -20 14 -37 30 -37 36 0
6 -4 8 -9 4 -6 -3 -14 2 -19 11 -5 9 -13 17 -18 17 -5 1 -8 6 -6 10 1 5 -2 6
-8 2 -6 -3 -24 0 -40 9 -17 8 -28 10 -25 5 4 -5 2 -9 -4 -9 -5 0 -11 4 -13 9
-4 12 -138 19 -138 8z"/>
<path d="M2371 2839 c-17 -16 -20 -24 -11 -29 7 -5 10 -15 7 -24 -4 -9 -1 -16
5 -16 6 0 8 -3 5 -7 -4 -3 0 -17 8 -30 9 -13 12 -23 8 -23 -5 0 -1 -5 7 -10
13 -8 13 -10 1 -10 -11 0 -10 -4 5 -16 10 -8 12 -12 4 -8 -12 7 -13 5 -3 -8 7
-8 10 -18 6 -21 -3 -4 -2 -7 4 -7 6 0 13 -14 17 -30 3 -17 11 -29 18 -28 7 2
12 -3 10 -11 -2 -8 3 -11 13 -8 8 4 15 2 15 -4 0 -6 4 -8 9 -4 5 3 13 0 17 -6
5 -9 10 -8 18 2 6 8 18 14 26 14 8 0 14 5 13 12 -2 7 6 17 18 23 17 10 18 14
7 27 -10 13 -10 17 -1 20 10 4 10 7 0 18 -7 7 -15 11 -19 8 -5 -2 -8 3 -8 11
0 9 -5 16 -11 16 -5 0 -7 5 -3 11 5 8 1 8 -14 0 -15 -8 -23 -6 -37 9 -10 11
-14 20 -9 20 5 0 1 7 -10 15 -10 7 -15 19 -11 25 3 6 1 9 -7 8 -7 -2 -14 7
-16 20 -2 13 -8 20 -14 16 -8 -5 -9 -1 -5 10 4 9 3 15 -2 12 -5 -3 -11 1 -15
9 -7 20 -18 19 -45 -6z"/>
<path d="M1830 2289 c0 -5 5 -7 10 -4 6 3 10 8 10 11 0 2 -4 4 -10 4 -5 0 -10
-5 -10 -11z"/>
<path d="M1174 2221 c3 -5 -1 -11 -9 -15 -8 -3 -15 -13 -15 -22 0 -13 -3 -14
-14 -5 -12 10 -13 8 -9 -10 5 -17 3 -20 -8 -15 -8 4 -3 -2 10 -13 13 -12 18
-21 12 -21 -7 0 -9 -5 -6 -10 4 -6 10 -8 14 -6 4 3 6 -8 5 -25 -1 -16 2 -26 7
-23 9 5 13 -8 10 -39 -1 -9 5 -24 14 -33 9 -9 14 -23 11 -30 -3 -8 -2 -14 2
-14 4 0 13 -9 20 -21 8 -12 9 -18 3 -14 -6 3 -11 1 -11 -4 0 -6 5 -11 10 -11
6 0 10 -7 10 -17 0 -9 3 -14 6 -10 7 7 33 -15 28 -24 -2 -4 3 -9 11 -13 8 -3
17 -1 20 4 3 5 18 5 34 0 23 -6 31 -5 35 7 4 9 13 13 22 9 8 -3 12 -2 9 3 -3
5 5 17 17 27 14 10 17 14 6 11 -12 -4 -15 -2 -11 9 3 7 9 14 14 14 12 0 -1 53
-15 62 -6 4 -7 8 -1 8 17 0 -35 31 -55 33 -13 1 -19 6 -15 16 4 11 3 11 -9 2
-10 -8 -16 -9 -21 -1 -3 5 -3 10 0 10 3 0 0 6 -7 14 -7 8 -16 12 -20 10 -4 -3
-5 4 -3 15 2 11 -3 25 -11 32 -8 6 -14 17 -14 23 0 6 -9 18 -20 26 -11 8 -20
20 -20 27 0 7 -5 13 -11 13 -5 0 -8 4 -5 9 3 5 -1 12 -10 15 -8 3 -13 2 -10
-3z"/>
<path d="M2806 1338 c3 -5 10 -6 15 -3 13 9 11 12 -6 12 -8 0 -12 -4 -9 -9z"/>
</g>
</svg>
