<?xml version="1.0" standalone="no"?>
<!DOCTYPE svg PUBLIC "-//W3C//DTD SVG 20010904//EN"
 "http://www.w3.org/TR/2001/REC-SVG-20010904/DTD/svg10.dtd">
<svg version="1.0" xmlns="http://www.w3.org/2000/svg"
 width="500.000000pt" height="500.000000pt" viewBox="0 0 500.000000 500.000000"
 preserveAspectRatio="xMidYMid meet">
<metadata>
Created by potrace 1.11, written by Peter Selinger 2001-2013
</metadata>
<g transform="translate(0.000000,500.000000) scale(0.100000,-0.100000)"
fill="#000000" stroke="none">
<path d="M0 2500 l0 -2500 2500 0 2500 0 0 2500 0 2500 -2500 0 -2500 0 0
-2500z m1672 2066 c205 -40 450 -172 682 -368 54 -45 111 -93 126 -106 l27
-22 79 71 c172 154 381 295 540 362 139 59 197 71 329 72 116 0 123 -1 187
-33 244 -120 343 -479 273 -987 -8 -55 -21 -133 -30 -173 -8 -40 -15 -79 -15
-87 0 -8 55 -31 141 -61 386 -131 685 -336 785 -538 35 -71 39 -89 42 -168 5
-110 -14 -176 -80 -275 -114 -170 -348 -329 -669 -456 -63 -25 -136 -51 -162
-58 -26 -6 -49 -15 -52 -18 -2 -4 0 -25 6 -47 49 -206 71 -517 50 -688 -33
-263 -132 -441 -288 -518 -55 -27 -78 -32 -162 -36 -116 -5 -212 13 -339 64
-177 70 -401 221 -578 387 l-52 48 -58 -54 c-205 -187 -442 -335 -657 -409
-86 -30 -101 -32 -232 -33 -131 0 -144 2 -197 27 -103 48 -158 105 -218 227
-52 103 -71 206 -77 398 -6 188 3 292 43 491 13 68 22 127 19 132 -3 5 -20 12
-38 15 -59 13 -271 97 -377 150 -268 134 -443 291 -527 471 -24 52 -28 71 -28
160 0 98 1 102 42 185 23 46 63 108 90 138 141 160 413 317 722 417 64 21 117
39 119 40 2 1 -8 55 -22 120 -38 186 -50 296 -49 474 0 128 5 187 21 264 25
117 81 241 140 307 43 49 135 103 198 118 60 14 164 13 246 -3z"/>
<path d="M1454 4369 c-41 -12 -99 -72 -128 -133 -78 -168 -84 -469 -15 -794
l22 -104 31 5 c17 2 110 18 206 35 96 17 225 36 287 42 104 12 114 14 129 39
35 53 214 279 294 370 l84 95 -65 59 c-201 184 -450 334 -634 382 -64 16 -162
18 -211 4z"/>
<path d="M3287 4350 c-184 -63 -385 -190 -576 -367 l-64 -59 101 -118 c56 -65
145 -176 197 -246 l96 -128 62 -7 c124 -13 337 -46 450 -69 105 -21 117 -22
121 -7 30 110 56 292 63 436 13 285 -53 505 -172 572 -60 34 -164 31 -278 -7z"/>
<path d="M2403 3664 c-56 -66 -117 -140 -137 -166 l-36 -46 271 0 c149 0 269
4 267 9 -4 11 -163 208 -221 273 l-43 49 -101 -119z"/>
<path d="M2197 3251 c-64 -4 -119 -10 -121 -12 -2 -2 -38 -56 -79 -120 -96
-147 -219 -361 -293 -510 l-57 -117 85 -158 c100 -187 192 -342 280 -474 l63
-95 85 -7 c116 -8 499 -9 650 -1 l123 6 62 96 c83 128 216 357 299 514 l67
128 -67 127 c-83 157 -211 376 -297 509 -60 93 -68 101 -103 107 -61 10 -567
15 -697 7z m424 -347 c73 -22 125 -54 180 -111 82 -86 119 -175 119 -289 0
-125 -72 -272 -166 -336 -88 -61 -130 -73 -254 -73 -104 0 -121 3 -173 27
-210 99 -303 358 -202 564 52 106 163 198 271 223 63 15 166 12 225 -5z"/>
<path d="M1720 3203 c-100 -16 -316 -56 -322 -59 -11 -7 120 -375 140 -396 4
-4 27 30 51 75 25 45 84 149 133 230 48 82 88 151 88 153 0 5 -54 3 -90 -3z"/>
<path d="M3196 3198 c4 -7 29 -47 54 -88 26 -41 84 -141 129 -222 46 -82 84
-148 86 -148 9 0 145 368 145 392 0 11 -61 25 -225 53 -168 29 -200 31 -189
13z"/>
<path d="M1065 3051 c-206 -72 -311 -121 -443 -208 -162 -107 -262 -234 -262
-333 0 -144 194 -335 475 -470 96 -46 322 -130 350 -130 7 0 33 59 60 138 26
75 77 207 114 293 l67 156 -62 144 c-34 79 -86 213 -116 296 -29 84 -57 153
-63 153 -5 -1 -59 -18 -120 -39z"/>
<path d="M3789 3023 c-30 -92 -118 -318 -167 -430 l-41 -91 64 -144 c61 -139
165 -408 165 -428 0 -16 23 -12 128 25 217 75 390 166 524 274 123 100 198
222 183 300 -28 149 -230 324 -515 446 -69 30 -303 115 -315 115 -2 0 -13 -30
-26 -67z"/>
<path d="M3390 2133 c-41 -75 -103 -182 -136 -237 -34 -56 -60 -103 -59 -104
7 -8 412 62 422 72 6 6 -143 407 -151 406 0 0 -35 -62 -76 -137z"/>
<path d="M1537 2253 c-14 -23 -137 -366 -137 -382 0 -16 16 -22 113 -40 151
-28 286 -45 293 -38 3 3 -20 48 -52 99 -31 51 -92 155 -135 231 -42 76 -79
135 -82 130z"/>
<path d="M3540 1644 c-122 -24 -404 -64 -456 -64 -29 0 -40 -12 -137 -142 -58
-79 -148 -193 -201 -255 l-95 -112 82 -71 c208 -182 381 -289 557 -345 165
-52 274 -33 346 62 38 49 79 168 95 273 16 104 5 387 -20 515 -31 157 -33 165
-45 164 -6 -1 -63 -12 -126 -25z"/>
<path d="M1337 1653 c-8 -13 -45 -200 -58 -293 -16 -121 -15 -350 4 -435 25
-117 55 -183 106 -235 39 -41 55 -50 105 -60 186 -38 529 125 818 389 l57 52
-105 122 c-58 67 -149 179 -202 249 -80 107 -101 129 -126 132 -17 3 -96 12
-176 21 -129 15 -338 47 -396 61 -12 3 -24 2 -27 -3z"/>
<path d="M2230 1552 c0 -14 269 -327 281 -327 13 0 269 309 269 324 0 3 -124
6 -275 6 -151 0 -275 -1 -275 -3z"/>
</g>
</svg>
